<svg width="11" height="12" viewBox="0 0 11 12" fill="none" xmlns="http://www.w3.org/2000/svg">
<path d="M10.8328 10.7284L8.12106 8.00549C8.81829 7.2053 9.2003 6.19849 9.2003 5.15035C9.2003 2.70149 7.13663 0.709106 4.60015 0.709106C2.06367 0.709106 0 2.70149 0 5.15035C0 7.59922 2.06367 9.5916 4.60015 9.5916C5.55238 9.5916 6.45981 9.31431 7.23563 8.78793L9.96792 11.5315C10.0821 11.646 10.2357 11.7091 10.4003 11.7091C10.5561 11.7091 10.7039 11.6518 10.8162 11.5475C11.0546 11.326 11.0622 10.9587 10.8328 10.7284ZM4.60015 1.86769C6.47501 1.86769 8.00026 3.34025 8.00026 5.15035C8.00026 6.96045 6.47501 8.43301 4.60015 8.43301C2.72529 8.43301 1.20004 6.96045 1.20004 5.15035C1.20004 3.34025 2.72529 1.86769 4.60015 1.86769Z" fill="#8495D1"/>
</svg>
