<svg width="13" height="13" viewBox="0 0 13 13" fill="none" xmlns="http://www.w3.org/2000/svg">
<path d="M12.7135 10.2888C10.6602 9.119 10.7709 5.31717 10.7727 5.26017C10.7727 3.48534 9.49493 1.98157 7.74418 1.48855V1.14833C7.7441 0.515258 7.18595 0 6.5 0C5.81405 0 5.25582 0.515258 5.25582 1.1484V1.48862C3.50507 1.98194 2.22743 3.4887 2.22775 5.27942C2.26744 6.34254 1.99592 9.31493 0.286471 10.2888C0.0569869 10.4196 -0.0506823 10.6753 0.0229563 10.9151C0.0966757 11.1547 0.333596 11.3201 0.603578 11.3201H4.21737C4.45615 12.2807 5.3879 13 6.5 13C7.6121 13 8.54385 12.2807 8.78263 11.3201H12.3964C12.6664 11.3201 12.9033 11.1547 12.977 10.9151C13.0507 10.6753 12.943 10.4196 12.7135 10.2888ZM2.0867 10.2058C3.52835 8.32776 3.43992 5.39439 3.43458 5.26024C3.43458 3.70037 4.80979 2.43117 6.5004 2.43117C8.19037 2.43117 9.56542 3.70037 9.56582 5.24099C9.56016 5.39118 9.47173 8.32739 10.9133 10.2058H2.0867Z" fill="#152766"/>
<circle cx="9.5" cy="3.5" r="2.5" fill="#E83882"/>
</svg>
