<svg width="8" height="8" viewBox="0 0 8 8" fill="none" xmlns="http://www.w3.org/2000/svg">
<path d="M7.56584 4.55815H4.55813V7.56589C4.55813 7.70291 4.37207 8 3.99998 8C3.62789 8 3.44184 7.70289 3.44184 7.56589V4.55813H0.434107C0.297109 4.55815 0 4.37209 0 4.00002C0 3.62794 0.297109 3.44187 0.434107 3.44187H3.44186V0.434109C3.44186 0.297126 3.62789 0 4 0C4.37211 0 4.55814 0.297126 4.55814 0.434109V3.44187H7.56589C7.70287 3.44187 8 3.62791 8 4.00002C8 4.37212 7.70284 4.55815 7.56584 4.55815Z" fill="#2F80ED"/>
</svg>
