<svg width="12" height="12" viewBox="0 0 12 12" fill="none" xmlns="http://www.w3.org/2000/svg">
<path d="M0.423408 4.75862C0.185886 4.75862 0 4.94483 0 5.18276V6.83793C0 7.07586 0.185886 7.26207 0.423408 7.26207H1.19793C1.31153 7.7069 1.48709 8.13103 1.72461 8.52414L1.18761 9.06207C1.02238 9.22759 1.02238 9.49655 1.18761 9.66207L2.35456 10.831C2.51979 10.9966 2.7883 10.9966 2.95353 10.831L3.50086 10.2828C3.89329 10.5103 4.3167 10.6862 4.76076 10.8V11.5759C4.76076 11.8138 4.94664 12 5.18417 12H6.83649C7.07401 12 7.2599 11.8138 7.2599 11.5759V10.7897C7.70396 10.6759 8.11704 10.5 8.50947 10.2724L9.06713 10.831C9.23236 10.9966 9.50086 10.9966 9.66609 10.831L10.833 9.66207C10.9983 9.49655 10.9983 9.22759 10.833 9.06207L10.2754 8.50345C10.5026 8.11034 10.6781 7.69655 10.7917 7.25172H11.5766C11.8141 7.25172 12 7.06552 12 6.82759V5.17241C12 4.93448 11.8141 4.74828 11.5766 4.74828H10.7917C10.6781 4.30345 10.5026 3.88966 10.2754 3.49655L10.833 2.93793C10.9983 2.77241 10.9983 2.50345 10.833 2.33793L9.65577 1.17931C9.49053 1.01379 9.22203 1.01379 9.0568 1.17931L8.50947 1.72759C8.11704 1.5 7.69363 1.32414 7.24957 1.2V0.424138C7.24957 0.186207 7.06368 0 6.82616 0H5.17384C4.93632 0 4.75043 0.186207 4.75043 0.424138V1.2C4.30637 1.31379 3.88296 1.48966 3.49053 1.71724L2.9432 1.16897C2.77797 1.00345 2.50947 1.00345 2.34423 1.16897L1.17728 2.34828C1.01205 2.51379 1.01205 2.78276 1.17728 2.94828L1.71429 3.48621C1.47676 3.87931 1.3012 4.30345 1.18761 4.75862H0.423408ZM1.95181 5.25517C2.05508 4.67586 2.28227 4.14828 2.60241 3.67241C2.71601 3.5069 2.69535 3.27931 2.55077 3.13448L2.07573 2.64828L2.64372 2.07931L3.12909 2.56552C3.27367 2.71035 3.50086 2.73103 3.66609 2.61724C4.14114 2.28621 4.67814 2.06897 5.24613 1.96552C5.44234 1.92414 5.59725 1.75862 5.59725 1.55172V0.858621H6.40275V1.55172C6.40275 1.75862 6.54733 1.93448 6.74355 1.96552C7.31153 2.06897 7.83821 2.29655 8.31325 2.61724C8.47849 2.73103 8.70568 2.71035 8.85026 2.56552L9.34596 2.06897L9.91394 2.63793L9.41824 3.13448C9.27367 3.27931 9.25301 3.5069 9.36661 3.67241C9.68675 4.14828 9.90361 4.67586 10.0172 5.24483C10.0585 5.44138 10.2341 5.59655 10.4303 5.59655H11.1325V6.40345H10.4303C10.2238 6.40345 10.0482 6.54828 10.0172 6.74483C9.91394 7.31379 9.69707 7.84138 9.36661 8.31724C9.25301 8.48276 9.27367 8.71034 9.41824 8.85517L9.91394 9.35172L9.34596 9.92069L8.85026 9.42414C8.70568 9.27931 8.47849 9.25862 8.31325 9.37241C7.83821 9.70345 7.31153 9.92069 6.74355 10.0241C6.54733 10.0655 6.40275 10.2414 6.40275 10.4379V11.131H5.59725V10.4379C5.59725 10.231 5.45267 10.0552 5.24613 10.0241C4.66781 9.92069 4.14114 9.70345 3.66609 9.37241C3.50086 9.25862 3.27367 9.27931 3.12909 9.42414L2.64372 9.91035L2.07573 9.37241L2.5611 8.88621C2.70568 8.74138 2.72633 8.51379 2.61274 8.34828C2.28227 7.87241 2.0654 7.33448 1.95181 6.76552C1.9105 6.56897 1.74527 6.42414 1.53873 6.42414H0.857143V5.61724H1.53873C1.73494 5.6069 1.9105 5.46207 1.95181 5.25517Z" fill="#152766"/>
<path d="M5.98968 8.97932C7.59037 8.97932 8.89157 7.67587 8.89157 6.07242C8.89157 4.46898 7.59037 3.16553 5.98968 3.16553C4.38899 3.16553 3.08779 4.46898 3.08779 6.07242C3.08779 7.67587 4.38899 8.97932 5.98968 8.97932ZM5.98968 4.0138C7.12565 4.0138 8.04476 4.93449 8.04476 6.07242C8.04476 7.21035 7.12565 8.13104 5.98968 8.13104C4.85371 8.13104 3.9346 7.21035 3.9346 6.07242C3.9346 4.93449 4.85371 4.0138 5.98968 4.0138Z" fill="#152766"/>
</svg>
