<svg width="12" height="13" viewBox="0 0 12 13" fill="none" xmlns="http://www.w3.org/2000/svg">
<path d="M11.1053 4.06286L9.5127 2.15263L8.40777 3.07443C7.91806 2.74741 7.36988 2.50377 6.78533 2.35048V1.47528H7.66993V0H4.04487V1.47528H5.0566V2.18656C2.23807 2.37296 0 4.71936 0 7.58408C0 10.571 2.42938 13 5.41551 13C8.40246 13 10.8314 10.571 10.8314 7.58408C10.8314 6.60465 10.5661 5.68735 10.1091 4.89391L11.1053 4.06286ZM5.62644 11.9776V10.7067H5.41592V11.9891C4.26766 11.9891 3.22445 11.5435 2.43919 10.8212C2.5328 10.7607 2.59902 10.6593 2.59902 10.5387C2.59902 10.3487 2.4445 10.1945 2.25442 10.1945C2.14159 10.1945 2.04594 10.253 1.98299 10.3372C1.37759 9.58301 1.01296 8.62811 1.01214 7.58776H2.10644V7.37724H1.02236C1.07264 6.30583 1.50594 5.33498 2.18983 4.59631C2.25319 4.67153 2.34435 4.72263 2.45063 4.72263C2.64071 4.72263 2.79482 4.56852 2.79482 4.37803C2.79482 4.28155 2.75436 4.19489 2.69059 4.13235C3.4411 3.53839 4.38661 3.18071 5.41551 3.18071V4.65845H5.62603V3.19093C6.55232 3.23467 7.4034 3.56456 8.09424 4.09679C8.04559 4.15606 8.01126 4.22964 8.01126 4.31344C8.01126 4.50393 8.16537 4.65804 8.35627 4.65804C8.45274 4.65804 8.53981 4.61675 8.60276 4.55258C9.30954 5.29574 9.75879 6.28416 9.80989 7.37642H8.77363V7.58654H9.82092C9.82011 8.44742 9.56789 9.24863 9.13908 9.92843C9.08021 9.88183 9.0099 9.84995 8.92897 9.84995C8.73848 9.84995 8.58437 10.0045 8.58437 10.1945C8.58437 10.311 8.64609 10.4087 8.7348 10.4721C7.96956 11.3485 6.86463 11.9188 5.62644 11.9776Z" fill="#152766"/>
<path d="M5.68898 4.37721V6.07773C6.41906 6.2065 6.97786 6.82049 7.02814 7.57468L8.69964 7.30121C8.52141 5.74376 7.26073 4.51088 5.68898 4.37721Z" fill="#152766"/>
</svg>
