<svg width="3" height="11" viewBox="0 0 3 11" fill="none" xmlns="http://www.w3.org/2000/svg">
<path d="M1.21186 2.44446C0.54257 2.44446 0 1.89725 0 1.22223C0 0.547212 0.54257 0 1.21186 0C1.88116 0 2.42373 0.547212 2.42373 1.22223C2.42373 1.89725 1.88116 2.44446 1.21186 2.44446Z" fill="#152766"/>
<path d="M1.21186 6.72224C0.54257 6.72224 0 6.17503 0 5.50001C0 4.82499 0.54257 4.27778 1.21186 4.27778C1.88116 4.27778 2.42373 4.82499 2.42373 5.50001C2.42373 6.17503 1.88116 6.72224 1.21186 6.72224Z" fill="#152766"/>
<path d="M1.21186 11C0.54257 11 0 10.4528 0 9.77777C0 9.10275 0.54257 8.55554 1.21186 8.55554C1.88116 8.55554 2.42373 9.10275 2.42373 9.77777C2.42373 10.4528 1.88116 11 1.21186 11Z" fill="#152766"/>
</svg>
