<svg width="9" height="9" viewBox="0 0 9 9" fill="none" xmlns="http://www.w3.org/2000/svg">
<path d="M5.29595 4.50009L8.83509 0.960808C9.05497 0.741104 9.05497 0.384623 8.83509 0.164919C8.6152 -0.054973 8.25912 -0.054973 8.03923 0.164919L4.50009 3.7042L0.960768 0.164919C0.740885 -0.054973 0.384795 -0.054973 0.164912 0.164919C-0.0549707 0.384623 -0.0549707 0.741104 0.164912 0.960808L3.70424 4.50009L0.164912 8.03938C-0.0549707 8.25908 -0.0549707 8.61556 0.164912 8.83527C0.274854 8.94503 0.418941 9 0.56284 9C0.706739 9 0.850827 8.94503 0.960768 8.83508L4.50009 5.29579L8.03923 8.83508C8.14917 8.94503 8.29326 9 8.43716 9C8.58106 9 8.72515 8.94503 8.83509 8.83508C9.05497 8.61538 9.05497 8.2589 8.83509 8.03919L5.29595 4.50009Z" fill="#8495D1" fill-opacity="0.4"/>
</svg>
